<svg viewBox="0 0 233 256" fill="none" xmlns="http://www.w3.org/2000/svg">
  <path opacity="0.1" fill-rule="evenodd" clip-rule="evenodd"
    d="M66.3636 22.9087C113.969 0.267241 173.866 -15.0631 209.422 23.9091C246.841 64.9225 233.816 127.27 204.644 174.474C176.701 219.687 127.63 252.564 76.0583 239.704C26.4326 227.328 2.38436 174.583 0.0984913 123.466C-1.88512 79.1082 26.2956 41.9655 66.3636 22.9087Z"
    fill="#D55E39" />
  <g clip-path="url(#clip0_159_471)">
    <path
      d="M139.667 72.2412H93C88.5813 72.2465 84.3452 74.0042 81.2207 77.1286C78.0963 80.2531 76.3386 84.4892 76.3333 88.9079V135.575C76.3386 139.993 78.0963 144.229 81.2207 147.354C84.3452 150.478 88.5813 152.236 93 152.241H139.667C144.085 152.236 148.321 150.478 151.446 147.354C154.57 144.229 156.328 139.993 156.333 135.575V88.9079C156.328 84.4892 154.57 80.2531 151.446 77.1286C148.321 74.0042 144.085 72.2465 139.667 72.2412ZM149.667 135.575C149.667 138.227 148.613 140.77 146.738 142.646C144.862 144.521 142.319 145.575 139.667 145.575H93C90.3478 145.575 87.8043 144.521 85.9289 142.646C84.0535 140.77 83 138.227 83 135.575V88.9079C83 86.2557 84.0535 83.7122 85.9289 81.8368C87.8043 79.9614 90.3478 78.9079 93 78.9079H139.667C142.319 78.9079 144.862 79.9614 146.738 81.8368C148.613 83.7122 149.667 86.2557 149.667 88.9079V135.575Z"
      fill="#0D3945" />
    <path
      d="M119.667 95.5745H139.667C140.551 95.5745 141.399 95.2234 142.024 94.5982C142.649 93.9731 143 93.1253 143 92.2412C143 91.3572 142.649 90.5093 142.024 89.8842C141.399 89.2591 140.551 88.9079 139.667 88.9079H119.667C118.783 88.9079 117.935 89.2591 117.31 89.8842C116.684 90.5093 116.333 91.3572 116.333 92.2412C116.333 93.1253 116.684 93.9731 117.31 94.5982C117.935 95.2234 118.783 95.5745 119.667 95.5745Z"
      fill="#0D3945" />
    <path
      d="M109.62 88.7925L100.029 98.0546C99.3929 98.6687 98.539 99.005 97.6551 98.9896C96.7712 98.9742 95.9296 98.6082 95.3155 97.9723C95.2937 97.9497 95.2722 97.9268 95.2511 97.9037C95.1932 97.8443 95.1372 97.7825 95.0835 97.7184L90.8 92.61C90.232 91.9326 89.9563 91.0572 90.0336 90.1766C90.111 89.2959 90.535 88.482 91.2124 87.914C91.8899 87.346 92.7652 87.0703 93.6458 87.1477C94.5265 87.225 95.3404 87.649 95.9084 88.3265L97.9653 90.7795L104.989 83.9969C105.625 83.3827 106.479 83.0464 107.363 83.0618C108.247 83.0773 109.088 83.4432 109.702 84.0791C110.316 84.7151 110.653 85.5689 110.637 86.4528C110.622 87.3367 110.256 88.1783 109.62 88.7925Z"
      fill="#0D3945" />
    <path
      d="M119.667 115.575H139.667C140.551 115.575 141.399 115.223 142.024 114.598C142.649 113.973 143 113.125 143 112.241C143 111.357 142.649 110.509 142.024 109.884C141.399 109.259 140.551 108.908 139.667 108.908H119.667C118.783 108.908 117.935 109.259 117.31 109.884C116.684 110.509 116.333 111.357 116.333 112.241C116.333 113.125 116.684 113.973 117.31 114.598C117.935 115.223 118.783 115.575 119.667 115.575Z"
      fill="#0D3945" />
    <path
      d="M109.62 108.792L100.029 118.055C99.3929 118.669 98.539 119.005 97.6551 118.99C96.7712 118.974 95.9296 118.608 95.3155 117.972C95.2937 117.95 95.2722 117.927 95.2511 117.904C95.1932 117.844 95.1372 117.782 95.0835 117.718L90.8 112.61C90.232 111.933 89.9563 111.057 90.0336 110.177C90.111 109.296 90.535 108.482 91.2124 107.914C91.8899 107.346 92.7652 107.07 93.6458 107.148C94.5265 107.225 95.3404 107.649 95.9084 108.326L97.9653 110.779L104.989 103.997C105.625 103.383 106.479 103.046 107.363 103.062C108.247 103.077 109.088 103.443 109.702 104.079C110.316 104.715 110.653 105.569 110.637 106.453C110.622 107.337 110.256 108.178 109.62 108.792Z"
      fill="#0D3945" />
    <path
      d="M119.667 135.575H139.667C140.551 135.575 141.399 135.223 142.024 134.598C142.649 133.973 143 133.125 143 132.241C143 131.357 142.649 130.509 142.024 129.884C141.399 129.259 140.551 128.908 139.667 128.908H119.667C118.783 128.908 117.935 129.259 117.31 129.884C116.684 130.509 116.333 131.357 116.333 132.241C116.333 133.125 116.684 133.973 117.31 134.598C117.935 135.223 118.783 135.575 119.667 135.575Z"
      fill="#0D3945" />
    <path
      d="M109.62 128.792L100.029 138.055C99.3929 138.669 98.539 139.005 97.6551 138.99C96.7712 138.974 95.9296 138.608 95.3155 137.972C95.2937 137.95 95.2722 137.927 95.2511 137.904C95.1932 137.844 95.1372 137.782 95.0835 137.718L90.8 132.61C90.232 131.933 89.9563 131.057 90.0336 130.177C90.111 129.296 90.535 128.482 91.2124 127.914C91.8899 127.346 92.7652 127.07 93.6458 127.148C94.5265 127.225 95.3404 127.649 95.9084 128.326L97.9653 130.779L104.989 123.997C105.625 123.383 106.479 123.046 107.363 123.062C108.247 123.077 109.088 123.443 109.702 124.079C110.316 124.715 110.653 125.569 110.637 126.453C110.622 127.337 110.256 128.178 109.62 128.792Z"
      fill="#0D3945" />
  </g>
  <defs>
    <clipPath id="clip0_159_471">
      <rect width="80" height="80" fill="white" transform="translate(76.3333 72.2412)" />
    </clipPath>
  </defs>
</svg>
