<svg width="136" height="24" viewBox="0 0 136 24" fill="none" xmlns="http://www.w3.org/2000/svg">
  <path
    d="M21.2847 8.27547L15.3339 7.41063L12.6738 2.01766C12.6012 1.87 12.4816 1.75047 12.3339 1.67781C11.9637 1.495 11.5137 1.64735 11.3285 2.01766L8.66838 7.41063L2.71758 8.27547C2.55352 8.29891 2.40352 8.37626 2.28867 8.49344C2.14983 8.63616 2.07333 8.82816 2.07596 9.02719C2.0786 9.2263 2.16017 9.41616 2.30274 9.55519L6.60821 13.7528L5.59102 19.6802C5.56717 19.818 5.58242 19.9599 5.63506 20.0895C5.6877 20.2192 5.77561 20.3314 5.88883 20.4137C6.00205 20.4959 6.13605 20.5448 6.27563 20.5547C6.41521 20.5647 6.55477 20.5354 6.67852 20.47L12.0012 17.6716L17.3238 20.47C17.4692 20.5474 17.6379 20.5732 17.7996 20.545C18.2074 20.4747 18.4816 20.0879 18.4113 19.6802L17.3942 13.7528L21.6996 9.55519C21.8168 9.44033 21.8942 9.29033 21.9176 9.12627C21.9808 8.71613 21.6949 8.33641 21.2847 8.27547Z"
    fill="#EFA929" />
  <path
    d="M49.2847 8.27547L43.3339 7.41063L40.6738 2.01766C40.6012 1.87 40.4816 1.75047 40.3339 1.67781C39.9636 1.495 39.5136 1.64735 39.3285 2.01766L36.6683 7.41063L30.7175 8.27547C30.5535 8.29891 30.4035 8.37626 30.2886 8.49344C30.1498 8.63616 30.0733 8.82816 30.0759 9.02719C30.0786 9.2263 30.1601 9.41616 30.3027 9.55519L34.6082 13.7528L33.591 19.6802C33.5671 19.818 33.5824 19.9599 33.635 20.0895C33.6877 20.2192 33.7756 20.3314 33.8888 20.4137C34.002 20.4959 34.136 20.5448 34.2756 20.5547C34.4152 20.5647 34.5547 20.5354 34.6785 20.47L40.0012 17.6716L45.3238 20.47C45.4691 20.5474 45.6378 20.5732 45.7996 20.545C46.2074 20.4747 46.4816 20.0879 46.4113 19.6802L45.3941 13.7528L49.6996 9.55519C49.8167 9.44033 49.8941 9.29033 49.9175 9.12627C49.9808 8.71613 49.6949 8.33641 49.2847 8.27547Z"
    fill="#EFA929" />
  <path
    d="M77.2847 8.27547L71.3339 7.41063L68.6738 2.01766C68.6012 1.87 68.4816 1.75047 68.3339 1.67781C67.9636 1.495 67.5136 1.64735 67.3285 2.01766L64.6683 7.41063L58.7175 8.27547C58.5535 8.29891 58.4035 8.37626 58.2886 8.49344C58.1498 8.63616 58.0733 8.82816 58.0759 9.02719C58.0786 9.2263 58.1601 9.41616 58.3027 9.55519L62.6082 13.7528L61.591 19.6802C61.5671 19.818 61.5824 19.9599 61.635 20.0895C61.6877 20.2192 61.7756 20.3314 61.8888 20.4137C62.002 20.4959 62.136 20.5448 62.2756 20.5547C62.4152 20.5647 62.5547 20.5354 62.6785 20.47L68.0012 17.6716L73.3238 20.47C73.4691 20.5474 73.6378 20.5732 73.7996 20.545C74.2074 20.4747 74.4816 20.0879 74.4113 19.6802L73.3941 13.7528L77.6996 9.55519C77.8167 9.44033 77.8941 9.29033 77.9175 9.12627C77.9808 8.71613 77.6949 8.33641 77.2847 8.27547Z"
    fill="#EFA929" />
  <path
    d="M105.285 8.27547L99.3339 7.41063L96.6738 2.01766C96.6012 1.87 96.4816 1.75047 96.3339 1.67781C95.9636 1.495 95.5136 1.64735 95.3285 2.01766L92.6683 7.41063L86.7175 8.27547C86.5535 8.29891 86.4035 8.37626 86.2886 8.49344C86.1498 8.63616 86.0733 8.82816 86.0759 9.02719C86.0786 9.2263 86.1601 9.41616 86.3027 9.55519L90.6082 13.7528L89.591 19.6802C89.5671 19.818 89.5824 19.9599 89.635 20.0895C89.6877 20.2192 89.7756 20.3314 89.8888 20.4137C90.002 20.4959 90.136 20.5448 90.2756 20.5547C90.4152 20.5647 90.5547 20.5354 90.6785 20.47L96.0012 17.6716L101.324 20.47C101.469 20.5474 101.638 20.5732 101.8 20.545C102.207 20.4747 102.482 20.0879 102.411 19.6802L101.394 13.7528L105.7 9.55519C105.817 9.44033 105.894 9.29033 105.918 9.12627C105.981 8.71613 105.695 8.33641 105.285 8.27547Z"
    fill="#EFA929" />
  <path
    d="M133.285 8.27547L127.334 7.41063L124.674 2.01766C124.601 1.87 124.482 1.75047 124.334 1.67781C123.964 1.495 123.514 1.64735 123.328 2.01766L120.668 7.41063L114.718 8.27547C114.553 8.29891 114.403 8.37626 114.289 8.49344C114.15 8.63616 114.073 8.82816 114.076 9.02719C114.079 9.2263 114.16 9.41616 114.303 9.55519L118.608 13.7528L117.591 19.6802C117.567 19.818 117.582 19.9599 117.635 20.0895C117.688 20.2192 117.776 20.3314 117.889 20.4137C118.002 20.4959 118.136 20.5448 118.276 20.5547C118.415 20.5647 118.555 20.5354 118.678 20.47L124.001 17.6716L129.324 20.47C129.469 20.5474 129.638 20.5732 129.8 20.545C130.207 20.4747 130.482 20.0879 130.411 19.6802L129.394 13.7528L133.7 9.55519C133.817 9.44033 133.894 9.29033 133.918 9.12627C133.981 8.71613 133.695 8.33641 133.285 8.27547Z"
    fill="#EFA929" />
</svg>
