<svg viewBox="0 0 214 260" fill="none" xmlns="http://www.w3.org/2000/svg">
  <path opacity="0.1" fill-rule="evenodd" clip-rule="evenodd"
    d="M109.239 0.00224858C153.625 0.325683 184.701 37.8805 199.618 79.76C216.371 126.793 224.725 183.528 185.655 214.542C142.656 248.674 79.835 243.135 36.8893 208.934C-1.23668 178.571 -1.2424 124.509 14.7201 78.4127C29.5421 35.6097 64.0145 -0.327292 109.239 0.00224858Z"
    fill="#1CA0CA" />
  <g clip-path="url(#clip0_159_463)">
    <path
      d="M132.333 79.1779H129V75.8446C129 74.9605 128.649 74.1127 128.024 73.4875C127.399 72.8624 126.551 72.5112 125.667 72.5112C124.783 72.5112 123.935 72.8624 123.31 73.4875C122.685 74.1127 122.333 74.9605 122.333 75.8446V79.1779H95.6667V75.8446C95.6667 74.9605 95.3155 74.1127 94.6904 73.4875C94.0652 72.8624 93.2174 72.5112 92.3333 72.5112C91.4493 72.5112 90.6014 72.8624 89.9763 73.4875C89.3512 74.1127 89 74.9605 89 75.8446V79.1779H85.6667C81.248 79.1832 77.0119 80.9408 73.8874 84.0653C70.7629 87.1898 69.0053 91.4259 69 95.8446V135.845C69.0053 140.263 70.7629 144.499 73.8874 147.624C77.0119 150.748 81.248 152.506 85.6667 152.511H132.333C136.752 152.506 140.988 150.748 144.113 147.624C147.237 144.499 148.995 140.263 149 135.845V95.8446C148.995 91.4259 147.237 87.1898 144.113 84.0653C140.988 80.9408 136.752 79.1832 132.333 79.1779ZM75.6667 95.8446C75.6667 93.1924 76.7202 90.6489 78.5956 88.7735C80.471 86.8981 83.0145 85.8446 85.6667 85.8446H132.333C134.985 85.8446 137.529 86.8981 139.404 88.7735C141.28 90.6489 142.333 93.1924 142.333 95.8446V99.1779H75.6667V95.8446ZM132.333 145.845H85.6667C83.0145 145.845 80.471 144.791 78.5956 142.916C76.7202 141.04 75.6667 138.497 75.6667 135.845V105.845H142.333V135.845C142.333 138.497 141.28 141.04 139.404 142.916C137.529 144.791 134.985 145.845 132.333 145.845Z"
      fill="#1CA0CA" />
    <path
      d="M109 127.511C111.761 127.511 114 125.273 114 122.511C114 119.75 111.761 117.511 109 117.511C106.239 117.511 104 119.75 104 122.511C104 125.273 106.239 127.511 109 127.511Z"
      fill="#1CA0CA" />
    <path
      d="M92.3328 127.511C95.0942 127.511 97.3328 125.273 97.3328 122.511C97.3328 119.75 95.0942 117.511 92.3328 117.511C89.5714 117.511 87.3328 119.75 87.3328 122.511C87.3328 125.273 89.5714 127.511 92.3328 127.511Z"
      fill="#1CA0CA" />
    <path
      d="M125.667 127.511C128.429 127.511 130.667 125.273 130.667 122.511C130.667 119.75 128.429 117.511 125.667 117.511C122.906 117.511 120.667 119.75 120.667 122.511C120.667 125.273 122.906 127.511 125.667 127.511Z"
      fill="#1CA0CA" />
  </g>
  <defs>
    <linearGradient id="paint0_linear_159_463" x1="34.5" y1="115.011" x2="34.5" y2="259.011"
      gradientUnits="userSpaceOnUse">
      <stop offset="0.539583" />
      <stop offset="1" stop-opacity="0.4" />
    </linearGradient>
    <clipPath id="clip0_159_463">
      <rect width="80" height="80" fill="white" transform="translate(69 72.5112)" />
    </clipPath>
  </defs>
</svg>
