<svg viewBox="0 0 234 265" fill="none" xmlns="http://www.w3.org/2000/svg">
  <path opacity="0.1" fill-rule="evenodd" clip-rule="evenodd"
    d="M110.685 0.0356667C162.928 -1.20609 211.587 30.0673 227.993 79.65C244.651 129.996 224.95 184.696 182.162 216.055C138.759 247.863 79.0266 252.771 36.173 220.228C-4.34738 189.458 -6.92394 133.024 9.37909 84.8462C24.9808 38.7409 61.9956 1.19295 110.685 0.0356667Z"
    fill="#A5D539" />
  <g clip-path="url(#clip0_159_470)">
    <path
      d="M150.667 85.1412C148.793 83.5743 146.597 82.4391 144.235 81.8164C141.873 81.1936 139.403 81.0985 137 81.5378L124.26 83.8512C121.319 84.3913 118.644 85.9046 116.667 88.1478C114.684 85.9007 112.002 84.3871 109.053 83.8512L96.3334 81.5378C93.9306 81.0982 91.4605 81.192 89.098 81.8128C86.7355 82.4335 84.5383 83.566 82.662 85.13C80.7856 86.6941 79.276 88.6514 78.24 90.8635C77.204 93.0757 76.6669 95.4885 76.6667 97.9312V133.908C76.6669 137.811 78.0367 141.589 80.5372 144.586C83.0377 147.582 86.5104 149.606 90.3501 150.305L111.303 154.115C114.85 154.759 118.484 154.759 122.03 154.115L143 150.305C146.837 149.602 150.306 147.577 152.803 144.581C155.3 141.585 156.667 137.808 156.667 133.908V97.9312C156.668 95.4893 156.131 93.0772 155.094 90.8665C154.057 88.6558 152.546 86.701 150.667 85.1412V85.1412ZM113.333 147.691C113.053 147.651 112.773 147.605 112.493 147.555L91.5434 143.748C89.2393 143.329 87.1554 142.114 85.655 140.316C84.1547 138.518 83.3331 136.25 83.3334 133.908V97.9312C83.3334 95.279 84.387 92.7355 86.2623 90.8601C88.1377 88.9848 90.6813 87.9312 93.3334 87.9312C93.937 87.9326 94.5394 87.9873 95.1334 88.0945L107.867 90.4278C109.399 90.7082 110.784 91.5161 111.783 92.7113C112.781 93.9066 113.33 95.4137 113.333 96.9712V147.691ZM150 133.908C150 136.25 149.179 138.518 147.678 140.316C146.178 142.114 144.094 143.329 141.79 143.748L120.84 147.555C120.56 147.605 120.28 147.651 120 147.691V96.9712C120 95.4099 120.548 93.898 121.548 92.6992C122.548 91.5004 123.937 90.6907 125.473 90.4112L138.21 88.0778C139.652 87.8154 141.135 87.8734 142.552 88.2475C143.97 88.6217 145.288 89.303 146.413 90.2432C147.538 91.1834 148.442 92.3594 149.062 93.6879C149.682 95.0165 150.002 96.4651 150 97.9312V133.908Z"
      fill="#A5D539" />
  </g>
  <defs>
    <linearGradient id="paint0_linear_159_470" x1="43" y1="121" x2="43" y2="265" gradientUnits="userSpaceOnUse">
      <stop offset="0.539583" />
      <stop offset="1" stop-opacity="0.4" />
    </linearGradient>
    <clipPath id="clip0_159_470">
      <rect width="80" height="80" fill="white" transform="translate(76.6667 77.9312)" />
    </clipPath>
  </defs>
</svg>
